<mxfile host="app.diagrams.net" modified="2023-10-30T18:15:25.269Z" agent="Mozilla/5.0 (Windows NT 10.0; Win64; x64) AppleWebKit/537.36 (KHTML, like Gecko) Chrome/116.0.0.0 Safari/537.36 OPR/102.0.0.0" etag="SWEI8lH7H6EWoGOznnuD" version="22.0.8" type="google" pages="2">
  <diagram id="bN9TWH5R1OgfURv1QPtn" name="Front-End">
    <mxGraphModel grid="1" page="1" gridSize="10" guides="1" tooltips="1" connect="1" arrows="1" fold="1" pageScale="1" pageWidth="827" pageHeight="1169" math="0" shadow="0">
      <root>
        <mxCell id="0" />
        <mxCell id="1" parent="0" />
      </root>
    </mxGraphModel>
  </diagram>
  <diagram name="Back-End" id="6wO-BwcSw76ntOkR117T">
    <mxGraphModel grid="1" page="1" gridSize="10" guides="1" tooltips="1" connect="1" arrows="1" fold="1" pageScale="1" pageWidth="827" pageHeight="1169" math="0" shadow="0">
      <root>
        <mxCell id="0" />
        <mxCell id="1" parent="0" />
        <mxCell id="DpLv7ZjnBWYaA1yfgsMo-6" style="edgeStyle=orthogonalEdgeStyle;rounded=0;orthogonalLoop=1;jettySize=auto;html=1;entryX=0.5;entryY=0;entryDx=0;entryDy=0;dashed=1;" edge="1" parent="1" source="DpLv7ZjnBWYaA1yfgsMo-1" target="DpLv7ZjnBWYaA1yfgsMo-3">
          <mxGeometry relative="1" as="geometry" />
        </mxCell>
        <mxCell id="DpLv7ZjnBWYaA1yfgsMo-10" style="edgeStyle=orthogonalEdgeStyle;rounded=0;orthogonalLoop=1;jettySize=auto;html=1;entryX=0.5;entryY=0;entryDx=0;entryDy=0;dashed=1;" edge="1" parent="1" source="DpLv7ZjnBWYaA1yfgsMo-1" target="DpLv7ZjnBWYaA1yfgsMo-8">
          <mxGeometry relative="1" as="geometry" />
        </mxCell>
        <mxCell id="DpLv7ZjnBWYaA1yfgsMo-19" style="edgeStyle=orthogonalEdgeStyle;rounded=0;orthogonalLoop=1;jettySize=auto;html=1;entryX=0;entryY=0.5;entryDx=0;entryDy=0;dashed=1;" edge="1" parent="1" source="DpLv7ZjnBWYaA1yfgsMo-1" target="DpLv7ZjnBWYaA1yfgsMo-14">
          <mxGeometry relative="1" as="geometry">
            <Array as="points">
              <mxPoint x="430" y="10" />
            </Array>
          </mxGeometry>
        </mxCell>
        <mxCell id="DpLv7ZjnBWYaA1yfgsMo-1" value="«Component»&lt;br&gt;&lt;b&gt;Microservice&lt;/b&gt;" style="html=1;dropTarget=0;whiteSpace=wrap;fillColor=#e1d5e7;strokeColor=#9673a6;" vertex="1" parent="1">
          <mxGeometry x="320" y="170" width="210" height="100" as="geometry" />
        </mxCell>
        <mxCell id="DpLv7ZjnBWYaA1yfgsMo-2" value="" style="shape=module;jettyWidth=8;jettyHeight=4;" vertex="1" parent="DpLv7ZjnBWYaA1yfgsMo-1">
          <mxGeometry x="1" width="20" height="20" relative="1" as="geometry">
            <mxPoint x="-27" y="7" as="offset" />
          </mxGeometry>
        </mxCell>
        <mxCell id="DpLv7ZjnBWYaA1yfgsMo-11" style="edgeStyle=orthogonalEdgeStyle;rounded=0;orthogonalLoop=1;jettySize=auto;html=1;entryX=0.5;entryY=1;entryDx=0;entryDy=0;dashed=1;" edge="1" parent="1" source="DpLv7ZjnBWYaA1yfgsMo-3" target="DpLv7ZjnBWYaA1yfgsMo-8">
          <mxGeometry relative="1" as="geometry" />
        </mxCell>
        <mxCell id="DpLv7ZjnBWYaA1yfgsMo-3" value="«Component»&lt;br&gt;&lt;b&gt;Microservice&lt;/b&gt;" style="html=1;dropTarget=0;whiteSpace=wrap;fillColor=#d5e8d4;strokeColor=#82b366;" vertex="1" parent="1">
          <mxGeometry x="320" y="430" width="210" height="100" as="geometry" />
        </mxCell>
        <mxCell id="DpLv7ZjnBWYaA1yfgsMo-4" value="" style="shape=module;jettyWidth=8;jettyHeight=4;" vertex="1" parent="DpLv7ZjnBWYaA1yfgsMo-3">
          <mxGeometry x="1" width="20" height="20" relative="1" as="geometry">
            <mxPoint x="-27" y="7" as="offset" />
          </mxGeometry>
        </mxCell>
        <mxCell id="DpLv7ZjnBWYaA1yfgsMo-7" value="&amp;lt;&amp;lt;use&amp;gt;&amp;gt;" style="text;html=1;align=center;verticalAlign=middle;resizable=0;points=[];autosize=1;strokeColor=none;fillColor=none;" vertex="1" parent="1">
          <mxGeometry x="390" y="338" width="70" height="30" as="geometry" />
        </mxCell>
        <mxCell id="DpLv7ZjnBWYaA1yfgsMo-8" value="«Component»&lt;br&gt;&lt;b&gt;Java 21&lt;br&gt;&lt;/b&gt;" style="html=1;dropTarget=0;whiteSpace=wrap;fillColor=#f8cecc;strokeColor=#b85450;" vertex="1" parent="1">
          <mxGeometry x="730" y="303" width="210" height="100" as="geometry" />
        </mxCell>
        <mxCell id="DpLv7ZjnBWYaA1yfgsMo-9" value="" style="shape=module;jettyWidth=8;jettyHeight=4;" vertex="1" parent="DpLv7ZjnBWYaA1yfgsMo-8">
          <mxGeometry x="1" width="20" height="20" relative="1" as="geometry">
            <mxPoint x="-27" y="7" as="offset" />
          </mxGeometry>
        </mxCell>
        <mxCell id="DpLv7ZjnBWYaA1yfgsMo-12" value="&amp;lt;&amp;lt;use&amp;gt;&amp;gt;" style="text;html=1;align=center;verticalAlign=middle;resizable=0;points=[];autosize=1;strokeColor=none;fillColor=none;" vertex="1" parent="1">
          <mxGeometry x="630" y="190" width="70" height="30" as="geometry" />
        </mxCell>
        <mxCell id="DpLv7ZjnBWYaA1yfgsMo-13" value="&amp;lt;&amp;lt;use&amp;gt;&amp;gt;" style="text;html=1;align=center;verticalAlign=middle;resizable=0;points=[];autosize=1;strokeColor=none;fillColor=none;" vertex="1" parent="1">
          <mxGeometry x="630" y="480" width="70" height="30" as="geometry" />
        </mxCell>
        <mxCell id="DpLv7ZjnBWYaA1yfgsMo-16" style="edgeStyle=orthogonalEdgeStyle;rounded=0;orthogonalLoop=1;jettySize=auto;html=1;dashed=1;" edge="1" parent="1" source="DpLv7ZjnBWYaA1yfgsMo-17" target="DpLv7ZjnBWYaA1yfgsMo-8">
          <mxGeometry relative="1" as="geometry" />
        </mxCell>
        <mxCell id="DpLv7ZjnBWYaA1yfgsMo-14" value="«Component»&lt;br&gt;&lt;b&gt;Spring Framework 3.1.5&lt;br&gt;&lt;/b&gt;" style="html=1;dropTarget=0;whiteSpace=wrap;fillColor=#d5e8d4;strokeColor=#82b366;" vertex="1" parent="1">
          <mxGeometry x="730" y="-40" width="210" height="100" as="geometry" />
        </mxCell>
        <mxCell id="DpLv7ZjnBWYaA1yfgsMo-15" value="" style="shape=module;jettyWidth=8;jettyHeight=4;" vertex="1" parent="DpLv7ZjnBWYaA1yfgsMo-14">
          <mxGeometry x="1" width="20" height="20" relative="1" as="geometry">
            <mxPoint x="-27" y="7" as="offset" />
          </mxGeometry>
        </mxCell>
        <mxCell id="DpLv7ZjnBWYaA1yfgsMo-18" value="" style="edgeStyle=orthogonalEdgeStyle;rounded=0;orthogonalLoop=1;jettySize=auto;html=1;dashed=1;endArrow=none;endFill=0;" edge="1" parent="1" source="DpLv7ZjnBWYaA1yfgsMo-14" target="DpLv7ZjnBWYaA1yfgsMo-17">
          <mxGeometry relative="1" as="geometry">
            <mxPoint x="835" y="60" as="sourcePoint" />
            <mxPoint x="835" y="303" as="targetPoint" />
          </mxGeometry>
        </mxCell>
        <mxCell id="DpLv7ZjnBWYaA1yfgsMo-17" value="&amp;lt;&amp;lt;use&amp;gt;&amp;gt;" style="text;html=1;align=center;verticalAlign=middle;resizable=0;points=[];autosize=1;strokeColor=none;fillColor=none;" vertex="1" parent="1">
          <mxGeometry x="800" y="120" width="70" height="30" as="geometry" />
        </mxCell>
        <mxCell id="DpLv7ZjnBWYaA1yfgsMo-20" value="&amp;lt;&amp;lt;use&amp;gt;&amp;gt;" style="text;html=1;align=center;verticalAlign=middle;resizable=0;points=[];autosize=1;strokeColor=none;fillColor=none;" vertex="1" parent="1">
          <mxGeometry x="560" y="-20" width="70" height="30" as="geometry" />
        </mxCell>
        <mxCell id="DpLv7ZjnBWYaA1yfgsMo-29" value="" style="group" connectable="0" vertex="1" parent="1">
          <mxGeometry x="-60" y="103" width="270" height="300" as="geometry" />
        </mxCell>
        <mxCell id="DpLv7ZjnBWYaA1yfgsMo-28" value="" style="rounded=0;whiteSpace=wrap;html=1;" vertex="1" parent="DpLv7ZjnBWYaA1yfgsMo-29">
          <mxGeometry width="270" height="300" as="geometry" />
        </mxCell>
        <mxCell id="DpLv7ZjnBWYaA1yfgsMo-21" value="Componente a desarrollar" style="html=1;dropTarget=0;whiteSpace=wrap;fillColor=#e1d5e7;strokeColor=#9673a6;" vertex="1" parent="DpLv7ZjnBWYaA1yfgsMo-29">
          <mxGeometry x="30" y="60" width="210" height="50" as="geometry" />
        </mxCell>
        <mxCell id="DpLv7ZjnBWYaA1yfgsMo-22" value="" style="shape=module;jettyWidth=8;jettyHeight=4;" vertex="1" parent="DpLv7ZjnBWYaA1yfgsMo-21">
          <mxGeometry x="1" width="20" height="20" relative="1" as="geometry">
            <mxPoint x="-27" y="7" as="offset" />
          </mxGeometry>
        </mxCell>
        <mxCell id="DpLv7ZjnBWYaA1yfgsMo-23" value="Frameworks/Aceleradores" style="html=1;dropTarget=0;whiteSpace=wrap;fillColor=#d5e8d4;strokeColor=#82b366;" vertex="1" parent="DpLv7ZjnBWYaA1yfgsMo-29">
          <mxGeometry x="30" y="140" width="210" height="50" as="geometry" />
        </mxCell>
        <mxCell id="DpLv7ZjnBWYaA1yfgsMo-24" value="" style="shape=module;jettyWidth=8;jettyHeight=4;" vertex="1" parent="DpLv7ZjnBWYaA1yfgsMo-23">
          <mxGeometry x="1" width="20" height="20" relative="1" as="geometry">
            <mxPoint x="-27" y="7" as="offset" />
          </mxGeometry>
        </mxCell>
        <mxCell id="DpLv7ZjnBWYaA1yfgsMo-25" value="Plataforma base" style="html=1;dropTarget=0;whiteSpace=wrap;fillColor=#f8cecc;strokeColor=#b85450;" vertex="1" parent="DpLv7ZjnBWYaA1yfgsMo-29">
          <mxGeometry x="30" y="220" width="210" height="40" as="geometry" />
        </mxCell>
        <mxCell id="DpLv7ZjnBWYaA1yfgsMo-26" value="" style="shape=module;jettyWidth=8;jettyHeight=4;" vertex="1" parent="DpLv7ZjnBWYaA1yfgsMo-25">
          <mxGeometry x="1" width="20" height="20" relative="1" as="geometry">
            <mxPoint x="-27" y="7" as="offset" />
          </mxGeometry>
        </mxCell>
        <mxCell id="DpLv7ZjnBWYaA1yfgsMo-27" value="Notación de lectura" style="text;html=1;align=center;verticalAlign=middle;resizable=0;points=[];autosize=1;strokeColor=none;fillColor=none;" vertex="1" parent="DpLv7ZjnBWYaA1yfgsMo-29">
          <mxGeometry x="80" y="20" width="130" height="30" as="geometry" />
        </mxCell>
      </root>
    </mxGraphModel>
  </diagram>
</mxfile>
